<?xml version="1.0" standalone="no"?>
<!DOCTYPE svg PUBLIC "-//W3C//DTD SVG 20010904//EN"
 "http://www.w3.org/TR/2001/REC-SVG-20010904/DTD/svg10.dtd">
<svg version="1.0" xmlns="http://www.w3.org/2000/svg"
 width="916.000000pt" height="916.000000pt" viewBox="0 0 916.000000 916.000000"
 preserveAspectRatio="xMidYMid meet">
<metadata>
Created by potrace 1.11, written by Peter Selinger 2001-2013
</metadata>
<g transform="translate(0.000000,916.000000) scale(0.100000,-0.100000)"
fill="#000000" stroke="none">
<path d="M2485 8310 c-22 -5 -56 -11 -75 -14 -204 -35 -471 -127 -670 -233
-230 -122 -399 -249 -596 -449 -219 -221 -375 -445 -499 -719 -20 -44 -40 -89
-45 -100 -32 -70 -104 -317 -126 -430 -2 -11 -6 -31 -9 -45 -40 -201 -42 -625
-5 -825 5 -27 12 -61 14 -75 59 -339 224 -708 449 -1005 84 -110 95 -123 413
-443 l280 -284 39 93 c22 51 55 118 76 149 21 33 238 258 542 563 279 279 507
509 507 511 0 3 -43 28 -95 57 -349 193 -480 541 -290 772 23 29 479 489 1012
1023 l971 971 -143 95 c-252 168 -567 305 -810 353 -226 45 -230 45 -569 44
-182 -1 -349 -5 -371 -9z"/>
<path d="M5985 8313 c-471 -65 -937 -285 -1290 -608 -156 -143 -2070 -2065
-2078 -2087 -23 -61 26 -158 115 -231 51 -42 155 -98 235 -128 71 -26 246 -33
339 -14 92 20 210 72 283 128 36 27 266 250 510 494 244 244 457 451 474 460
21 11 45 14 79 10 55 -7 68 -15 146 -89 46 -44 125 -110 197 -166 83 -65 253
-160 360 -203 104 -40 260 -68 364 -63 169 7 352 81 500 202 45 37 93 76 106
86 54 43 174 27 210 -28 23 -35 30 -99 15 -136 -25 -61 -214 -215 -345 -283
-100 -52 -247 -101 -335 -113 -25 -3 -48 -8 -52 -11 -16 -9 -236 -4 -298 6
-276 48 -575 195 -825 407 l-61 52 -410 -408 c-326 -326 -427 -420 -499 -468
-129 -87 -244 -135 -375 -158 -25 -4 -48 -9 -52 -10 -5 -1 -45 -2 -90 -3 l-83
-1 -120 -123 c-66 -67 -221 -227 -345 -356 -124 -128 -254 -264 -290 -300
-339 -350 -371 -386 -403 -450 -30 -62 -32 -72 -32 -171 1 -90 4 -112 25 -154
13 -26 23 -55 23 -62 0 -15 72 -86 122 -121 47 -33 151 -64 214 -64 72 0 165
25 216 58 22 14 403 389 848 834 859 860 821 826 909 822 89 -5 143 -95 115
-192 -8 -29 -178 -204 -827 -856 -513 -515 -827 -837 -843 -865 -78 -140 -56
-329 53 -453 84 -95 247 -146 375 -116 117 27 98 10 965 875 822 820 825 823
873 829 59 9 112 -9 140 -47 28 -37 34 -116 12 -159 -9 -19 -383 -401 -830
-849 -768 -771 -814 -819 -845 -884 -59 -126 -43 -280 41 -386 90 -114 239
-170 389 -146 119 19 111 12 978 878 444 444 820 812 836 817 38 15 90 14 132
-4 62 -26 87 -114 55 -197 -5 -14 -377 -394 -826 -843 -758 -758 -820 -823
-849 -884 -26 -56 -31 -79 -32 -151 -3 -116 28 -193 105 -270 99 -98 217 -135
353 -112 141 24 -115 -223 2898 2801 652 654 694 701 860 975 140 231 272 598
306 851 3 28 9 59 12 70 2 11 7 148 9 304 4 244 -3 407 -22 491 -1 3 -5 25 -9
50 -26 153 -94 371 -161 520 -228 506 -649 935 -1160 1181 -159 77 -389 158
-515 183 -14 2 -47 9 -75 15 -27 6 -66 13 -85 17 -38 8 -686 14 -735 7z"/>
</g>
</svg>
